<svg xmlns="http://www.w3.org/2000/svg" viewBox="0 0 800 1600" preserveAspectRatio="xMidYMin slice">
<defs>
<path id="leaf" d="M0 0C22-20 64-24 100 0C62 16 24 22 0 0Z"/>
<filter id="pane" x="-20%" y="-20%" width="140%" height="140%"><feGaussianBlur stdDeviation="10"/></filter>
<filter id="scatter" x="-30%" y="-30%" width="160%" height="160%"><feGaussianBlur stdDeviation="60"/></filter>
<filter id="leaves" x="-20%" y="-20%" width="140%" height="140%"><feGaussianBlur stdDeviation="5"/></filter>
<linearGradient id="spill" x1="0" y1="0" x2="0" y2="1"><stop offset=".84" stop-opacity="0"/><stop offset="1"/></linearGradient>
<!-- Where the mask is white the page is in shade; the window panes and the bottom edge cut it away. -->
<mask id="shade" maskUnits="userSpaceOnUse" x="0" y="0" width="800" height="1600">
<rect width="800" height="1600" fill="#fff"/>
<g filter="url(#scatter)" opacity=".4"><path d="M-300 -100H503L735.6 1063H-67.4Z"/><path d="M543 -100H1346L1578.6 1063H775.6Z"/><path d="M-60.8 1096H742.2L974.8 2259H171.8Z"/><path d="M782.2 1096H1585.2L1817.8 2259H1014.8Z"/></g>
<g filter="url(#pane)"><path d="M-300 -100H503L735.6 1063H-67.4Z"/><path d="M543 -100H1346L1578.6 1063H775.6Z"/><path d="M-60.8 1096H742.2L974.8 2259H171.8Z"/><path d="M782.2 1096H1585.2L1817.8 2259H1014.8Z"/></g>
<g fill="#fff" filter="url(#leaves)"><path d="M860 150Q700 230 600 420" fill="none" stroke="#fff" stroke-width="7.7" stroke-linecap="round"/><use href="#leaf" transform="translate(822.5 170.8) rotate(110.6) scale(0.973)"/><use href="#leaf" transform="translate(770.5 207.0) rotate(188.4) scale(0.712)"/><use href="#leaf" transform="translate(722.3 250.0) rotate(72.9) scale(0.830)"/><use href="#leaf" transform="translate(677.8 299.9) rotate(181.2) scale(0.794)"/><use href="#leaf" transform="translate(637.1 356.5) rotate(71.7) scale(0.658)"/><use href="#leaf" transform="translate(600.0 420.0) rotate(161.9) scale(0.756)"/></g>
<rect width="800" height="1600" fill="url(#spill)"/>
</mask>
</defs>
<rect width="800" height="1600" fill="#232a2e" fill-opacity="0.1" mask="url(#shade)"/>
</svg>
